# xmcd CD database file
#
# Track frame offsets:
#	150
#	19673
#	46027
#	59457
#	88332
#	109295
#	127463
#	148637
#	169471
#	203131
#	234529
#	244475
#	257803
#	279002
#	298281
#	315698
#	330517
#
# Disc length: 4819 seconds
#
# Revision: 3
# Processed by: cddbd v1.5.2PL0 Copyright (c) Steve Scherf et al.
# Submitted via: CDex 1.70beta2
#
DISCID=0d12d111
DTITLE=Various Artist - The Sound Of Jazz (The Best Of Impulse) [CD 01)
DYEAR=2011
DGENRE=Jazz
TTITLE0=McCoy Tyner Trio - Reaching Fourth
TTITLE1=Ahmad Jamal - How Insensitive
TTITLE2=Mel Brown - Blues For We
TTITLE3=Coleman Hawkins - Do Li'l Liza
TTITLE4=Art Blakey - Summertime
TTITLE5=Curtis Fuller - The Breeze And I
TTITLE6=Shirley Scott Trio - The Blues Ain't Nothin' But Some Pain
TTITLE7=Clark Terry - Impulsive
TTITLE8=Freddie Hubbard - Caravan
TTITLE9=Sonny Rollins - Three Little Words
TTITLE10=Milt Jackson - Jazz'n Samba
TTITLE11=Hank Jones and Oliver Nelson - Broadwalk Samba
TTITLE12=Duke Ellington and John Coltrane - Take The Coltrane
TTITLE13=Sonny Stitt - I'm Getting Sentimental Over You
TTITLE14=Elvin Jones - Dear John C.
TTITLE15=Chico Hamilton - Evil Eye
TTITLE16=Gabor Szabo - Spellbinder
EXTD=YEAR: 2011
EXTT0=
EXTT1=
EXTT2=
EXTT3=
EXTT4=
EXTT5=
EXTT6=
EXTT7=
EXTT8=
EXTT9=
EXTT10=
EXTT11=
EXTT12=
EXTT13=
EXTT14=
EXTT15=
EXTT16=
PLAYORDER=
